# xmcd
#
# Track frame offsets: 
#        150
#        9634
#        27047
#        47387
#        73805
#        84247
#        102256
#        118008
#        143386
#        163541
#        174170
#        197744
#        213614
#        233541
#        243059
#        256622
#        283703
#        307501
#
# Disc length: 4255 seconds
#
# Revision: 0
# Processed by: cddbd v1.4PL0 Copyright (c) Steve Scherf et al.
# Submitted via: ExactAudioCopy v0.95a4
#
DISCID=d4109d12
DTITLE=Main Influenz - Mellow Down Easy
DYEAR=1900
DGENRE=Blues
TTITLE0=Big D-Shuffle
TTITLE1=Mad Man Blues
TTITLE2=Ain´t Nobody´s Business
TTITLE3=Mellow Down Easy
TTITLE4=Violent Love
TTITLE5=Lovin´Cup
TTITLE6=Hallelujah  I Love her So
TTITLE7=So What
TTITLE8=Foxy Lady
TTITLE9=Next To Me
TTITLE10=Public Intercourse
TTITLE11=Enjoy Your Second Life
TTITLE12=Sensitive Kind
TTITLE13=Aint´t She Sweet
TTITLE14=Sugaree
TTITLE15=Caledonia
TTITLE16=Chitlins Con Carne
TTITLE17=Little Angel
EXTD=
EXTT0=
EXTT1=
EXTT2=
EXTT3=
EXTT4=
EXTT5=
EXTT6=
EXTT7=
EXTT8=
EXTT9=
EXTT10=
EXTT11=
EXTT12=
EXTT13=
EXTT14=
EXTT15=
EXTT16=
EXTT17=
PLAYORDER=
